<svg width="36" height="22" viewBox="0 0 36 22" fill="none" xmlns="http://www.w3.org/2000/svg">
<path d="M35.9156 11.2385C31.6688 6.34473 25.8 0.719727 18 0.719727C14.85 0.719727 11.9625 1.61035 8.91563 3.51348C6.34688 5.12598 3.7125 7.39473 0.09375 11.126L0 11.2197L0.628125 11.8666C5.79375 17.1541 10.2563 21.7197 18 21.7197C21.4219 21.7197 24.7406 20.6041 28.1438 18.3072C31.0406 16.3479 33.5062 13.8635 35.4844 11.8572L36 11.3416L35.9156 11.2385ZM18 18.7197C13.8656 18.7197 10.5 15.3541 10.5 11.2197C10.5 7.08535 13.8656 3.71973 18 3.71973C22.1344 3.71973 25.5 7.08535 25.5 11.2197C25.5 15.3541 22.1344 18.7197 18 18.7197Z" fill="white"/>
</svg>
